<svg width="18" height="18" viewBox="0 0 18 18" fill="none" xmlns="http://www.w3.org/2000/svg">
<path fill-rule="evenodd" clip-rule="evenodd" d="M4.96718 7.56245C5.11445 7.31455 5.45727 7.30064 5.63155 7.51009L7.25973 9.46473L9.036 5.55791C9.17918 5.24045 9.65127 5.23473 9.78873 5.57509L12.1402 11.4545H14.7273V0.409091C14.7273 0.183273 14.544 0 14.3182 0H0.409091C0.183273 0 0 0.183273 0 0.409091V11.4545H2.63209L4.96718 7.56245ZM4.09091 2.45455C4.99255 2.45455 5.72727 3.18845 5.72727 4.09091C5.72727 4.99255 4.99255 5.72727 4.09091 5.72727C3.18845 5.72727 2.45455 4.99255 2.45455 4.09091C2.45455 3.18845 3.18845 2.45455 4.09091 2.45455Z" fill="#1F2430"/>
<path d="M15.5455 4.76018V15.5455H3.98127L3.84873 16.4144C3.81355 16.6459 3.97964 16.8611 4.21609 16.8832L16.4389 17.9975C16.6639 18.018 16.8627 17.8527 16.8832 17.6277L17.9984 5.40573C18.0188 5.18073 17.8535 4.98191 17.6285 4.96145C17.2691 4.92904 16.9962 4.90459 16.7843 4.88561C16.2784 4.8403 16.1198 4.82611 15.9616 4.80879C15.8895 4.8009 15.8174 4.79235 15.7123 4.7799C15.6646 4.77424 15.61 4.76777 15.5455 4.76018Z" fill="#1F2430"/>
<path d="M14.7273 12.2727H0V14.3182C0 14.544 0.183273 14.7273 0.409091 14.7273H14.3182C14.544 14.7273 14.7273 14.544 14.7273 14.3182V12.2727Z" fill="#1F2430"/>
</svg>
