<svg width="16" height="13" viewBox="0 0 16 13" fill="none" xmlns="http://www.w3.org/2000/svg">
<path fill-rule="evenodd" clip-rule="evenodd" d="M14.4 0H1.6C0.72 0 0 0.72 0 1.6V11.2C0 12.08 0.72 12.8 1.6 12.8H14.4C15.28 12.8 16 12.08 16 11.2V1.6C16 0.72 15.28 0 14.4 0ZM14.08 3.4L8.848 6.672C8.328 7 7.672 7 7.152 6.672L1.92 3.4C1.72 3.272 1.6 3.056 1.6 2.824C1.6 2.288 2.184 1.968 2.64 2.248L8 5.6L13.36 2.248C13.816 1.968 14.4 2.288 14.4 2.824C14.4 3.056 14.28 3.272 14.08 3.4Z" fill="#3F7EAA"/>
<mask id="mask0" mask-type="alpha" maskUnits="userSpaceOnUse" x="0" y="0" width="16" height="13">
<path fill-rule="evenodd" clip-rule="evenodd" d="M14.4 0H1.6C0.72 0 0 0.72 0 1.6V11.2C0 12.08 0.72 12.8 1.6 12.8H14.4C15.28 12.8 16 12.08 16 11.2V1.6C16 0.72 15.28 0 14.4 0ZM14.08 3.4L8.848 6.672C8.328 7 7.672 7 7.152 6.672L1.92 3.4C1.72 3.272 1.6 3.056 1.6 2.824C1.6 2.288 2.184 1.968 2.64 2.248L8 5.6L13.36 2.248C13.816 1.968 14.4 2.288 14.4 2.824C14.4 3.056 14.28 3.272 14.08 3.4Z" fill="white"/>
</mask>
<g mask="url(#mask0)">
</g>
</svg>
