<svg width="20" height="20" viewBox="0 0 20 20" fill="none" xmlns="http://www.w3.org/2000/svg">
<path fill-rule="evenodd" clip-rule="evenodd" d="M14.6233 19.3332H14V5.99697H15C15.1327 5.99697 15.2527 5.91828 15.306 5.79626C15.3587 5.67423 15.334 5.5322 15.2433 5.43551L10.2433 0.101022C10.1173 -0.033674 9.88333 -0.033674 9.75733 0.101022L4.75733 5.43551C4.66667 5.5322 4.642 5.67423 4.69467 5.79626C4.748 5.91828 4.868 5.99697 5.00067 5.99697H6.00067V19.3332H5.00067C4.81667 19.3332 4.66733 19.4826 4.66733 19.6666C4.66733 19.8506 4.81667 20 5.00067 20H14.624C14.808 20 14.9573 19.8506 14.9573 19.6666C14.9573 19.4826 14.8073 19.3332 14.6233 19.3332ZM12 19.3332H8V14.9989C8 14.8149 8.14933 14.6655 8.33333 14.6655H11.6667C11.8507 14.6655 12 14.8149 12 14.9989V19.3332ZM10 11.9983C8.52933 11.9983 7.33333 10.802 7.33333 9.33102C7.33333 7.86004 8.52933 6.66378 10 6.66378C11.4707 6.66378 12.6667 7.86004 12.6667 9.33102C12.6667 10.802 11.4707 11.9983 10 11.9983ZM5.33333 18.333V6.99718C5.33333 6.81314 5.184 6.66378 5 6.66378H1.66667C1.53 6.66378 1.408 6.74713 1.35733 6.87316L0.0266667 10.2012C0.0266667 10.2012 0.0266667 10.2012 0.0266667 10.2019L0.024 10.2079C0.022 10.2139 0.0233333 10.2199 0.0213333 10.2259C0.01 10.2592 0 10.2939 0 10.3312V18.333C0 18.517 0.149333 18.6664 0.333333 18.6664H5C5.184 18.6664 5.33333 18.517 5.33333 18.333ZM4.66667 15.6657C4.66667 15.8498 4.51733 15.9991 4.33333 15.9991H1C0.816 15.9991 0.666667 15.8498 0.666667 15.6657V12.9985C0.666667 12.8144 0.816 12.6651 1 12.6651H4.33333C4.51733 12.6651 4.66667 12.8144 4.66667 12.9985V15.6657ZM19.9787 10.2259C19.9767 10.2199 19.9787 10.2139 19.976 10.2079L19.9733 10.2019L18.6427 6.87382C18.592 6.74713 18.47 6.66378 18.3333 6.66378H15C14.816 6.66378 14.6667 6.81314 14.6667 6.99718V18.333C14.6667 18.517 14.816 18.6664 15 18.6664H19.6667C19.8507 18.6664 20 18.517 20 18.333V10.3312C20 10.2939 19.99 10.2592 19.9787 10.2259ZM19.3333 15.6657C19.3333 15.8498 19.184 15.9991 19 15.9991H15.6667C15.4827 15.9991 15.3333 15.8498 15.3333 15.6657V12.9985C15.3333 12.8144 15.4827 12.6651 15.6667 12.6651H19C19.184 12.6651 19.3333 12.8144 19.3333 12.9985V15.6657ZM10.334 9.04163V8.3308C10.334 8.14676 10.1847 7.9974 10.0007 7.9974C9.81667 7.9974 9.66667 8.14676 9.66667 8.3308V9.21966C9.66667 9.33102 9.722 9.43504 9.81533 9.49706L10.482 9.94182C10.5387 9.97983 10.6027 9.99783 10.6667 9.99783C10.7747 9.99783 10.88 9.94582 10.9447 9.84913C11.0467 9.69577 11.0053 9.48906 10.852 9.38703L10.334 9.04163Z" fill="#5592BC"/>
</svg>
