<svg width="14" height="20" viewBox="0 0 14 20" fill="none" xmlns="http://www.w3.org/2000/svg">
<path fill-rule="evenodd" clip-rule="evenodd" d="M10 0H3.33334C1.49501 0 0 1.495 0 3.33334V19.5834C0 19.9509 0.446668 20.1409 0.710836 19.8784L4.58335 16.0059L8.45503 19.8784C8.72003 20.1409 9.1667 19.9509 9.1667 19.5834V3.75001C9.1667 3.02584 9.69253 2.50001 10.4167 2.50001C10.6459 2.50001 10.8334 2.68668 10.8334 2.91668C10.8334 3.14584 10.6459 3.33334 10.4167 3.33334C10.1517 3.33334 10 3.48501 10 3.75001V5.82752H12.9167C13.1459 5.83335 13.3334 5.64585 13.3334 5.41669V3.33334C13.3334 1.495 11.8375 0 10 0Z" fill="#3F7EAA"/>
</svg>
